<svg xmlns="http://www.w3.org/2000/svg" width="1200" height="630" viewBox="0 0 1200 630">
  <defs>
    <linearGradient id="bg" x1="0" x2="1" y1="0" y2="1">
      <stop offset="0%" stop-color="#eff6ff"/>
      <stop offset="100%" stop-color="#dbeafe"/>
    </linearGradient>
  </defs>
  <rect width="1200" height="630" fill="url(#bg)"/>
  <rect x="70" y="70" width="1060" height="490" rx="36" fill="#fff" stroke="#bfdbfe" stroke-width="4"/>
  <rect x="120" y="130" width="86" height="86" rx="24" fill="#2563eb"/>
  <path d="M154 156h18v6l-3 5v12l13 21a8 8 0 0 1-7 12h-24a8 8 0 0 1-7-12l13-21v-12l-3-5v-6Z" fill="#fff"/>
  <text x="235" y="178" font-family="Arial, sans-serif" font-size="52" font-weight="700" fill="#0f172a">LabExplain</text>
  <text x="235" y="222" font-family="Arial, sans-serif" font-size="24" fill="#475569">Plain-English lab explanations</text>
  <text x="120" y="320" font-family="Arial, sans-serif" font-size="68" font-weight="700" fill="#0f172a">Understand Your Lab Results</text>
  <text x="120" y="390" font-family="Arial, sans-serif" font-size="68" font-weight="700" fill="#2563eb">Without The Confusion</text>
  <text x="120" y="465" font-family="Arial, sans-serif" font-size="28" fill="#334155">Paste text, upload PDFs, or scan a paper report.</text>
  <text x="120" y="505" font-family="Arial, sans-serif" font-size="28" fill="#334155">Get plain-English explanations and better doctor questions.</text>
</svg>
